HIERARCHY
ROOT Pelvis
{
	OFFSET 0.000000 0.000000 0.000000
	CHANNELS 6 Xposition Yposition Zposition Xrotation Yrotation Zrotation
	JOINT LeftUpLeg_virtual
	{
		OFFSET 0.000000 0.000000 0.000000
		CHANNELS 3 Xrotation Yrotation Zrotation
		JOINT LeftUpLeg
		{
			OFFSET 18.735201 -5.666702 -4.541200
			CHANNELS 3 Xrotation Yrotation Zrotation
			JOINT LeftLeg
			{
				OFFSET -0.021200 -31.938179 0.493100
				CHANNELS 3 Xrotation Yrotation Zrotation
				JOINT LeftFoot
				{
					OFFSET 0.021200 -31.938179 -4.336299
					CHANNELS 3 Xrotation Yrotation Zrotation
					JOINT LeftToeBase
					{
						OFFSET 0.943001 -26.722000 15.023500
						CHANNELS 3 Xrotation Yrotation Zrotation
						End Site
						{
							OFFSET 0 0 0
						}
					}
				}
			}
		}
	}
	JOINT RightUpLeg_virtual
	{
		OFFSET 0.000000 0.000000 0.000000
		CHANNELS 3 Xrotation Yrotation Zrotation
		JOINT RightUpLeg
		{
			OFFSET -18.735201 -5.666702 -4.541200
			CHANNELS 3 Xrotation Yrotation Zrotation
			JOINT RightLeg
			{
				OFFSET 0.018946 -31.938133 0.493100
				CHANNELS 3 Xrotation Yrotation Zrotation
				JOINT RightFoot
				{
					OFFSET -0.018946 -31.938126 -4.336299
					CHANNELS 3 Xrotation Yrotation Zrotation
					JOINT RightToeBase
					{
						OFFSET -0.943001 -26.722004 15.023500
						CHANNELS 3 Xrotation Yrotation Zrotation
						End Site
						{
							OFFSET 0 0 0
						}
					}
				}
			}
		}
	}
	JOINT Hips_virtual
	{
		OFFSET 0.000000 0.000000 0.000000
		CHANNELS 3 Xrotation Yrotation Zrotation
		JOINT Hips
		{
			OFFSET -0.000000 -0.000000 -0.000000
			CHANNELS 3 Xrotation Yrotation Zrotation
			JOINT Spine
			{
				OFFSET 0.000000 10.199997 -0.299500
				CHANNELS 3 Xrotation Yrotation Zrotation
				JOINT Spine1
				{
					OFFSET 0.000000 11.900002 -1.516600
					CHANNELS 3 Xrotation Yrotation Zrotation
					JOINT Spine2
					{
						OFFSET 0.000000 13.600006 -2.842500
						CHANNELS 3 Xrotation Yrotation Zrotation
						JOINT Neck_virtual
						{
							OFFSET 0.000000 0.000000 0.000000
							CHANNELS 3 Xrotation Yrotation Zrotation
							JOINT Neck
							{
								OFFSET 0.000000 9.624100 -2.890100
								CHANNELS 3 Xrotation Yrotation Zrotation
								JOINT Head
								{
									OFFSET 0.000000 14.068802 -1.351900
									CHANNELS 3 Xrotation Yrotation Zrotation
									End Site
									{
										OFFSET 0 0 0
									}
								}
							}
						}
						JOINT LeftShoulder_virtual
						{
							OFFSET 0.000000 0.000000 0.000000
							CHANNELS 3 Xrotation Yrotation Zrotation
							JOINT LeftShoulder
							{
								OFFSET 15.263000 10.923401 -0.547700
								CHANNELS 3 Xrotation Yrotation Zrotation
								JOINT LeftArm
								{
									OFFSET 25.438599 -2.830597 -13.032500
									CHANNELS 3 Xrotation Yrotation Zrotation
									JOINT LeftForeArm
									{
										OFFSET 29.960503 0.000000 0.000000
										CHANNELS 3 Xrotation Yrotation Zrotation
										JOINT LeftHand
										{
											OFFSET 27.849251 0.000000 0.000000
											CHANNELS 3 Xrotation Yrotation Zrotation
											End Site
											{
												OFFSET 0 0 0
											}
										}
									}
								}
							}
						}
						JOINT RightShoulder_virtual
						{
							OFFSET 0.000000 0.000000 0.000000
							CHANNELS 3 Xrotation Yrotation Zrotation
							JOINT RightShoulder
							{
								OFFSET -15.263000 10.923401 -0.547700
								CHANNELS 3 Xrotation Yrotation Zrotation
								JOINT RightArm
								{
									OFFSET -25.438599 -2.830597 -13.032500
									CHANNELS 3 Xrotation Yrotation Zrotation
									JOINT RightForeArm
									{
										OFFSET -29.960503 0.000000 0.000000
										CHANNELS 3 Xrotation Yrotation Zrotation
										JOINT RightHand
										{
											OFFSET -27.849251 0.000000 0.000000
											CHANNELS 3 Xrotation Yrotation Zrotation
											End Site
											{
												OFFSET 0 0 0
											}
										}
									}
								}
							}
						}
					}
				}
			}
		}
	}
}
MOTION
Frames: 11
Frame Time: 0.03333333
-0.760258 89.231651 4.631781 0.000000 0.000000 0.000000 -0.537783 -16.445632 -5.425653 -44.639651 7.805762 12.738698 70.454836 7.423214 2.657915 14.764489 5.544232 5.657663 0.000000 0.000000 0.000000 3.952591 3.365738 6.337095 -24.548856 -5.215004 -7.664031 48.385685 0.487909 -5.702140 -6.123483 0.438317 3.138848 0.000000 0.000000 0.000000 2.613197 0.336016 -0.015516 1.631182 0.941577 -1.356318 11.988905 3.186732 0.585332 6.586800 2.632573 -0.543163 0.000000 0.000000 0.000000 5.013459 1.387631 0.463431 -0.113748 0.565827 0.793829 0.000000 0.000000 0.000000 6.070738 2.473155 -0.529019 1.739192 -3.669658 -3.337735 14.470367 -14.934726 -61.346150 9.759686 -45.627825 -4.965083 0.000000 0.000000 0.000000 7.234539 2.117381 1.192111 1.929026 5.025135 11.752792 -7.686003 8.278939 58.480592 -9.577386 65.352165 17.894256 0.000000 0.000000 0.000000 
2.115187 88.805168 12.585426 0.000000 0.000000 0.000000 -3.055809 -20.038612 -3.929192 -47.479616 5.685047 14.232330 70.642761 8.926997 4.106109 14.797106 6.458873 9.176528 0.000000 0.000000 0.000000 3.940945 3.481704 5.889007 -23.894380 -5.049881 -7.730164 52.836274 0.195337 -6.223998 -1.982073 0.820029 1.969205 0.000000 0.000000 0.000000 0.403834 -0.725073 -0.309933 1.620031 -3.018644 3.604709 11.125447 3.011735 -0.719333 6.441577 2.788309 -1.104147 0.000000 0.000000 0.000000 5.535596 1.121177 -0.802853 0.123673 0.562735 0.461289 0.000000 0.000000 0.000000 5.400959 2.505770 -1.071748 1.558195 -3.386932 -4.426490 14.702638 -10.273652 -63.143815 10.266739 -40.666499 -4.815459 0.000000 0.000000 0.000000 6.903666 2.479602 0.047617 2.386169 4.059862 8.760976 -10.884118 8.613354 54.778937 -18.220387 72.132877 24.404095 0.000000 0.000000 0.000000 
1.779914 88.372253 23.999361 0.000000 0.000000 0.000000 -6.165552 -21.887862 -4.649418 -50.005499 4.688622 13.479649 71.305727 9.817436 4.786045 15.779380 7.221224 11.106942 0.000000 0.000000 0.000000 3.945740 4.159427 6.811766 -23.000194 -5.024309 -6.239756 58.258495 -0.252296 -6.193684 3.084130 0.811211 1.552546 0.000000 0.000000 0.000000 0.648935 -0.105637 0.803535 -2.568798 -4.549120 5.606568 11.332812 3.200277 -2.452595 5.925328 3.060555 -1.845320 0.000000 0.000000 0.000000 7.398075 1.208899 -1.747275 0.694788 0.684565 0.077079 0.000000 0.000000 0.000000 5.669716 2.953781 -1.611746 1.084690 -4.185283 -6.426079 16.443161 -7.699601 -65.792480 11.428768 -35.711890 -5.307984 0.000000 0.000000 0.000000 7.189337 3.189444 -1.049344 2.995160 4.098676 5.989996 -13.349659 9.350692 55.033969 -27.080764 74.592209 31.731724 0.000000 0.000000 0.000000 
1.238964 87.808807 32.108398 0.000000 0.000000 0.000000 -10.131981 -24.038076 -3.856652 -55.070313 2.802770 15.110467 70.899310 10.924502 5.051886 15.134471 8.242889 12.411139 0.000000 0.000000 0.000000 3.976885 4.109945 7.351198 -23.271204 -5.196063 -5.842012 68.992171 -0.417964 -6.277804 10.551823 1.399839 1.727105 0.000000 0.000000 0.000000 -0.482630 0.459089 0.792095 -2.680650 -6.227675 7.752165 11.230885 2.845438 -2.915085 6.952532 3.262601 -3.030139 0.000000 0.000000 0.000000 9.444630 1.064729 -2.793288 1.418058 0.789173 -0.375007 0.000000 0.000000 0.000000 7.220950 2.765474 -2.083927 1.183981 -5.093993 -6.084794 18.674538 -9.012663 -65.337412 11.654951 -35.498515 -4.727976 0.000000 0.000000 0.000000 7.912429 3.443946 -2.312550 2.470503 2.832806 2.847768 -14.115919 7.805668 51.914260 -39.654364 78.909107 43.389166 0.000000 0.000000 0.000000 
1.176420 84.718506 41.555897 0.000000 0.000000 0.000000 -14.089256 -23.734455 -3.781766 -58.838596 1.713745 15.379788 68.784062 12.485112 6.035059 13.598204 9.532214 15.212964 0.000000 0.000000 0.000000 5.017008 6.190387 6.502957 -22.386001 -4.629350 -6.878578 80.731518 -0.049728 -6.594468 17.577903 2.746742 2.276025 0.000000 0.000000 0.000000 -0.770040 1.021301 1.066655 -9.667746 -9.550581 10.657899 12.660737 3.315414 -4.597985 7.229631 3.304549 -3.656435 0.000000 0.000000 0.000000 11.483336 1.194223 -3.724441 1.889870 1.023680 -0.641129 0.000000 0.000000 0.000000 7.777660 2.342039 -2.891821 0.958129 -4.998840 -8.104698 20.974813 -8.120854 -64.307454 12.054848 -34.860992 -4.156477 0.000000 0.000000 0.000000 8.510374 3.616316 -3.410425 3.155223 2.777892 -1.242076 -15.773518 4.396042 48.664845 -53.215339 79.672272 55.511341 0.000000 0.000000 0.000000 
1.683529 82.134529 51.533768 0.000000 0.000000 0.000000 -17.279042 -23.029815 -3.582948 -62.370706 0.965164 15.970239 66.166221 14.251168 6.374918 11.011858 11.148118 16.991062 0.000000 0.000000 0.000000 4.844557 7.127775 7.460085 -23.029233 -4.623910 -6.069630 91.946955 2.208384 -5.618448 24.425023 5.477980 6.757748 0.000000 0.000000 0.000000 -2.685345 -4.791660 1.673563 -7.892616 -10.678587 11.112456 12.199234 3.117007 -5.853231 8.335081 3.478519 -4.675869 0.000000 0.000000 0.000000 12.897470 1.150294 -4.873639 2.846706 0.976185 -1.145970 0.000000 0.000000 0.000000 8.718478 2.744961 -3.497708 1.813094 -3.938729 -8.346635 25.091081 -7.849691 -63.033992 14.463699 -33.105893 -2.753174 0.000000 0.000000 0.000000 8.421116 3.764066 -4.302289 2.345586 2.290085 -4.277976 -21.886043 2.649993 48.583702 -58.362477 78.798759 60.111573 0.000000 0.000000 0.000000 
2.323509 77.802505 59.463619 0.000000 0.000000 0.000000 -18.063402 -25.617813 -4.165078 -62.707311 0.277960 15.481203 64.050420 14.313194 6.585463 9.295922 11.070724 17.114186 0.000000 0.000000 0.000000 2.787839 7.085862 9.892397 -25.857624 -5.020155 -3.746452 100.631725 5.060255 -4.771198 29.520802 8.817509 11.766709 0.000000 0.000000 0.000000 -2.002183 -5.774885 2.465135 -9.412973 -12.953520 11.442709 12.784600 4.324819 -6.389095 9.309389 3.237533 -5.091454 0.000000 0.000000 0.000000 13.718094 1.402236 -5.434119 2.957957 1.120516 -1.416394 0.000000 0.000000 0.000000 9.108307 2.933907 -3.779444 2.011923 -4.174657 -8.751212 32.225666 -5.918949 -59.570355 16.481894 -29.728330 -1.316993 0.000000 0.000000 0.000000 8.240649 4.233969 -4.745606 1.779615 1.931159 -5.843321 -23.875993 -0.254302 48.635178 -67.842903 78.288277 69.322862 0.000000 0.000000 0.000000 
1.659474 74.820702 70.278610 0.000000 0.000000 0.000000 -19.262581 -29.776117 -4.568059 -63.822531 -1.014366 15.590144 62.936682 14.212241 7.283950 8.447750 10.636049 17.935093 0.000000 0.000000 0.000000 -0.119898 7.191756 11.567938 -29.914890 -5.226972 -2.403195 106.024856 8.319205 -4.198064 30.924020 12.200910 17.060052 0.000000 0.000000 0.000000 -1.762339 -8.681290 2.865932 -10.774475 -15.057120 13.759843 13.942741 4.163770 -7.214201 9.443816 3.218349 -6.081976 0.000000 0.000000 0.000000 14.735800 1.351092 -6.565703 3.178670 1.140454 -1.759902 0.000000 0.000000 0.000000 9.521143 2.519378 -4.487580 1.427652 -3.133140 -10.457108 36.161781 -1.819273 -60.558609 16.867979 -27.290458 -0.364862 0.000000 0.000000 0.000000 9.403195 4.368837 -5.538182 1.747119 1.563757 -6.496092 -20.220249 -2.419059 50.599705 -92.527179 78.288728 95.202558 0.000000 0.000000 0.000000 
1.621874 70.466431 79.178497 0.000000 0.000000 0.000000 -19.419756 -33.146594 -3.524389 -63.896461 -2.606198 16.548271 60.252555 12.976051 8.022007 6.653998 9.003298 17.780504 0.000000 0.000000 0.000000 -1.739080 3.165626 12.633591 -32.781165 -6.499413 -1.845547 109.990921 10.853933 -3.250195 31.654003 14.355311 21.948243 0.000000 0.000000 0.000000 -1.194962 -10.224795 3.718790 -12.564775 -16.508965 13.712244 14.529776 3.572032 -8.156691 10.097510 2.828692 -6.562484 0.000000 0.000000 0.000000 15.002939 1.382090 -7.439031 3.167466 1.256454 -2.225648 0.000000 0.000000 0.000000 9.638513 2.480935 -5.109337 1.473306 -3.115458 -12.116978 37.473440 1.079934 -60.735613 16.281696 -22.789524 -1.045183 0.000000 0.000000 0.000000 9.276037 4.077843 -5.947544 1.577788 0.320591 -8.185640 -17.679268 -5.422843 53.140333 -97.962152 77.203971 101.911934 0.000000 0.000000 0.000000 
2.432932 66.085938 87.871468 0.000000 0.000000 0.000000 -19.319071 -39.405520 -2.536635 -63.188846 -5.100290 17.281077 58.775574 11.595682 8.901465 5.912332 7.180127 17.903787 0.000000 0.000000 0.000000 -2.953430 -2.694982 13.827025 -35.434427 -8.361611 -1.184955 111.205001 12.315611 -2.022553 31.266000 14.944830 25.500206 0.000000 0.000000 0.000000 -0.664252 -11.755889 4.768960 -10.969607 -17.348629 16.100494 14.751057 3.268969 -8.728794 10.363627 2.493806 -7.071378 0.000000 0.000000 0.000000 15.130145 1.216598 -7.847997 3.192302 1.365502 -2.496558 0.000000 0.000000 0.000000 9.707600 2.284879 -5.539242 1.536376 -2.084834 -14.229695 39.481342 3.287192 -62.024880 16.147728 -20.107324 -1.712584 0.000000 0.000000 0.000000 9.633122 3.973374 -6.053710 1.488666 -0.293695 -8.782773 -14.224269 -7.827689 55.743626 -106.730660 76.398084 112.105561 0.000000 0.000000 0.000000 
2.794256 60.687561 98.384453 0.000000 0.000000 0.000000 -19.320703 -46.096742 -2.231448 -62.724066 -7.407859 17.727724 58.775888 9.589750 9.067728 5.803651 4.918952 16.373948 0.000000 0.000000 0.000000 -3.927151 -8.691824 13.957584 -38.022195 -9.920717 -1.729261 112.786729 13.214110 -0.700372 30.890179 14.759323 28.408136 0.000000 0.000000 0.000000 -0.841178 -12.901571 5.217026 -11.857537 -18.771996 16.725404 14.781533 2.869794 -9.487674 10.449319 2.162812 -7.520162 0.000000 0.000000 0.000000 14.933630 1.086555 -8.502466 3.053707 1.533143 -2.847919 0.000000 0.000000 0.000000 10.243190 2.109943 -6.121244 1.906930 -0.670932 -16.526023 40.107427 4.509778 -63.311742 16.278383 -18.658909 -2.072027 0.000000 0.000000 0.000000 9.744528 3.751349 -6.245714 1.626406 -0.946204 -8.960548 -8.935528 -8.348767 57.194686 -116.499750 75.895314 123.033058 0.000000 0.000000 0.000000 
